<?xml version="1.0" encoding="UTF-8" standalone="no"?>
<svg id="svg1812" xmlns:rdf="http://www.w3.org/1999/02/22-rdf-syntax-ns#" xmlns="http://www.w3.org/2000/svg" viewBox="0 0 81.639534 130.62321" width="81.64mm" version="1.1" xmlns:cc="http://creativecommons.org/ns#" height="130.62mm" xmlns:dc="http://purl.org/dc/elements/1.1/">
 <metadata id="metadata1809">
  <rdf:RDF>
   <cc:Work rdf:about="">
    <dc:format>image/svg+xml</dc:format>
    <dc:type rdf:resource="http://purl.org/dc/dcmitype/StillImage"/>
    <dc:title/>
   </cc:Work>
  </rdf:RDF>
 </metadata>
 <g id="layer1" transform="translate(-79.377 -74.45)">
  <g id="g1786" transform="matrix(.26458 0 0 .26458 -118.37 211.53)">
   <g id="g12-8-0" transform="matrix(.96124 0 0 .96124 655.59 -517.63)" stroke="#fff" fill="#dcc12f">
    <path id="path10-9-6" d="m256 0c-88.36 0-160 71.625-160 160 0 24.75 5.625 48.219 15.672 69.125 0.56 1.19 144.33 282.88 144.33 282.88l142.59-279.38c11.13-21.78 17.41-46.46 17.41-72.62 0-88.375-71.62-160-160-160zm0 256c-53.016 0-96-43-96-96s42.984-96 96-96c53 0 96 43 96 96s-43 96-96 96z" stroke="#fff" fill="#dcc12f"/>
   </g>
   <path id="path51-7-3" d="m960.5-379.64c-4.3432 0-8.5099 0.76724-12.374 2.1712l-8.6846-15.836c-0.2565-0.46763-0.57321-0.88024-0.93043-1.2412l8.0341-12.955h9.7124c3.0794 0 5.5759-2.4965 5.5759-5.5759s-2.4965-5.5759-5.5759-5.5759h-31.81c-3.0794 0-5.5759 2.4965-5.5759 5.5759s2.4965 5.5759 5.5759 5.5759h8.9749l-5.1521 8.3081h-62.258l3.3191-10.699h12.845c8.1597 0 14.798-6.6386 14.798-14.799v-2.4188c0-3.0794-2.4965-5.5759-5.5759-5.5759s-5.5759 2.4965-5.5759 5.5759v2.4188c0 2.011-1.636 3.647-3.6466 3.647h-16.953c-2.443 0-4.6016 1.5902-5.3253 3.9236l-11.749 37.87c-1.7345-0.25537-3.508-0.38957-5.3123-0.38957-20.033 0-36.331 16.298-36.331 36.33 0 20.033 16.298 36.33 36.33 36.33 20.033 0 36.33-16.298 36.33-36.33 0-14.309-8.3166-26.711-20.369-32.63l3.1578-10.178 35.37 43.9c1.062 1.3182 2.6608 2.0776 4.3414 2.0776 0.11412 0 0.22899-0.003 0.34347-0.0106 1.8044-0.11115 3.4429-1.0903 4.3956-2.6266l25.487-41.098 6.4632 11.785c-8.6218 6.6487-14.187 17.076-14.187 28.781 0 20.033 16.298 36.33 36.33 36.33 20.033 0 36.331-16.298 36.331-36.331s-16.298-36.33-36.33-36.33zm-92.484 36.33c0 13.884-11.295 25.178-25.178 25.178-13.884 0-25.179-11.295-25.179-25.178 0-13.884 11.295-25.178 25.178-25.178 0.6561 0 1.304 0.0331 1.9478 0.0828l-7.2732 23.444c-0.91259 2.9415 0.73191 6.0651 3.673 6.9776 0.55015 0.17062 1.1066 0.25203 1.6538 0.25203 2.3783 0 4.5822-1.5341 5.3238-3.925l7.2717-23.439c7.514 4.3611 12.582 12.491 12.582 21.786zm33.059-12.03-26.347-32.701h46.627zm59.425 37.209c-13.884 0-25.178-11.295-25.178-25.178 0-7.4865 3.2879-14.216 8.4913-18.832l11.798 21.514c1.0141 1.8493 2.9236 2.8957 4.8938 2.8957 0.90626 0 1.8256-0.22155 2.6764-0.68806 2.7002-1.4806 3.6886-4.87 2.2077-7.5702l-11.804-21.524c2.1988-0.62933 4.5168-0.97318 6.9152-0.97318 13.884 0 25.178 11.295 25.178 25.178 0 13.884-11.295 25.178-25.178 25.178z" stroke="#fff" fill="#dcc12f"/>
   <path id="path1370-2" fill="#fff" d="m879.81-274.66c-17.462-4.426-34.144-14.411-46.039-27.555-3.2944-3.6405-5.8674-6.7415-5.7177-6.8912 0.14968-0.14968 2.9704 0.45294 6.2683 1.3392 8.0353 2.1593 16.318 1.175 24.761-2.9423 17.713-8.6376 25.061-29.761 16.828-48.373-2.0373-4.6057-9.262-12.83-14.015-15.954-2.2193-1.4587-2.3138-1.9426-1.182-6.0544l1.2301-4.469 13.631 17.009c23.174 28.917 22.896 28.623 26.686 28.246 3.0595-0.30437 4.4242-2.0964 16.585-21.778l13.251-21.446 2.8296 5.7696 2.8297 5.7696-3.784 3.6676c-2.0812 2.0172-5.074 6.3041-6.6505 9.5265-2.3884 4.8818-2.8808 7.4302-2.9523 15.28-0.0748 8.2079 0.30666 10.221 2.9612 15.626 7.6947 15.669 25.997 24.481 41.935 20.191 3.1488-0.84753 5.725-1.1534 5.725-0.67982 0 0.47362-3.8659 4.6955-8.591 9.3819-10.325 10.241-22.113 17.499-36.186 22.282-9.3859 3.1899-11.685 3.5291-26.104 3.851-12.978 0.28979-17.333-0.0325-24.301-1.7987z"/>
   <path id="path1372-0" fill="#fff" d="m836.75-319.35c-5.5798-1.3235-11.874-6.0775-14.914-11.264-9.3165-15.897 0.0234-34.423 18.853-37.395 4.4299-0.69914 4.6652-0.61263 3.5806 1.3165-0.6385 1.1356-2.6548 6.8717-4.4806 12.747-3.4766 11.187-3.3472 13.699 0.81807 15.881 1.9178 1.0047 6.0881-0.008 7.1576-1.7388 0.32462-0.52526 2.2499-6.4362 4.2784-13.135l3.6882-12.18 3.8916 4.0625c5.659 5.9074 7.4034 10.074 7.4034 17.683 0 8.11-2.5109 13.523-8.75 18.864-6.2238 5.3274-13.485 7.068-21.526 5.1606z"/>
   <path id="path1374-6" fill="#fff" d="m890.41-369.22c-5.962-7.5134-11.921-14.83-13.241-16.259l-2.4015-2.598 23.666 0.0167c13.016 0.009 23.16 0.37723 22.542 0.81786-1.103 0.78618-15.545 23.627-18.315 28.965-1.3919 2.6829-1.5482 2.5433-12.25-10.943z"/>
   <path id="path1376-1" fill="#fff" d="m810.63-371.17c0.51856-11.837 4.734-26.848 10.259-36.531 18.122-31.759 51.462-50.017 86.948-47.615 31.438 2.128 58.644 19.514 74.511 47.615 6.4567 11.436 11.884 32.654 11.001 43.013l-0.36635 4.3014-3.0133-4.5725c-6.1501-9.3325-21.666-16.32-32.973-14.848-2.9988 0.39023-6.3111 1.161-7.3607 1.7128-1.1067 0.58185-1.9083 0.59255-1.9083 0.0255 0-0.53781-1.9498-4.5249-4.3328-8.8602l-4.3328-7.8823 3.774-5.8997c3.7056-5.7928 3.8685-5.8997 8.9973-5.8997 6.443 0 10.07-2.3005 10.07-6.3866 0-5.2973-1.1833-5.6087-21.313-5.6087-17.183 0-18.853 0.17295-20.63 2.137-4.2533 4.6999 0.30125 9.8582 8.7043 9.8582h3.695l-1.8576 3.2394-1.8576 3.2394-31.352 0.30464c-20.604 0.20021-31.189-0.0692-30.877-0.78584 0.2613-0.59976 1.0754-2.9307 1.809-5.1798l1.3339-4.0893h9.0585c8.543 0 9.2741-0.18927 12.847-3.3259 7.5196-6.6023 7.6816-19.611 0.24362-19.557-3.7144 0.0267-5.3057 1.6465-6.032 6.14l-0.67931 4.2029-10.996 0.54524c-6.1424 0.30457-11.692 1.1232-12.573 1.8545-0.86701 0.72011-4.2309 10.044-7.4753 20.719l-5.899 19.41-6.8141 0.16836c-11.192 0.27653-22.803 6.769-28.951 16.189l-2.1352 3.2714z"/>
   <path id="path1378-5" fill="#fff" d="m950.14-320.86c-2.23-1.1188-5.2237-3.0816-6.6525-4.3619-3.9105-3.5039-7.7423-12.499-7.727-18.14 0.0135-4.9948 3.0442-13.132 6.1826-16.6 1.6249-1.7955 1.97-1.4843 5.4203 4.8875 2.0267 3.7428 4.7302 8.8467 6.0078 11.342 2.8025 5.4734 6.0232 7.2703 9.7334 5.4304 4.3375-2.1509 3.7704-5.8168-2.7277-17.632l-5.9805-10.874 2.9274-0.79507c9.2511-2.5126 21.563 4.5996 25.918 14.971 8.4397 20.103-13.803 41.452-33.101 31.771z"/>
  </g>
 </g>
</svg>
